# xmcd
#
# Track frame offsets: 
#        150
#        12483
#        27136
#        39107
#        61925
#        83363
#        104571
#        123717
#        134637
#        156089
#        167962
#        185541
#        197164
#        216283
#
# Disc length: 3151 seconds
#
# Revision: 3
# Processed by: cddbd v1.5.2PL0 Copyright (c) Steve Scherf et al.
# Submitted via: ExactAudioCopyFreeDBPlugin 1.0
#
DISCID=c10c4d0e
DTITLE=Lightnin' Hopkins - Goin' Back Home
DYEAR=1999
DGENRE=Blues
TTITLE0=Shaggy Dog
TTITLE1=Santa Fe Blues
TTITLE2=Shinin' Moon
TTITLE3=I'll Be Gone
TTITLE4=Shake It Baby
TTITLE5=Goin' Back Home
TTITLE6=Good Times
TTITLE7=I'm Wit It
TTITLE8=Don't Wake Me
TTITLE9=Talk Of The Town
TTITLE10=California Landslide
TTITLE11=Easy On Your Heels
TTITLE12=Leave Jike Mary Alone
TTITLE13=You Treat Po' Lightnin' Wrong
EXTD=
EXTT0=
EXTT1=
EXTT2=
EXTT3=
EXTT4=
EXTT5=
EXTT6=
EXTT7=
EXTT8=
EXTT9=
EXTT10=
EXTT11=
EXTT12=
EXTT13=
PLAYORDER=
